<?xml version="1.0" standalone="no"?>
<!DOCTYPE svg PUBLIC "-//W3C//DTD SVG 20010904//EN"
 "http://www.w3.org/TR/2001/REC-SVG-20010904/DTD/svg10.dtd">
<svg version="1.0" xmlns="http://www.w3.org/2000/svg"
 width="200.000000pt" height="200.000000pt" viewBox="0 0 200.000000 200.000000"
 preserveAspectRatio="xMidYMid meet">
<metadata>
Created by potrace 1.14, written by Peter Selinger 2001-2017
</metadata>
<g transform="translate(0.000000,200.000000) scale(0.100000,-0.100000)"
fill="#000000" stroke="none">
<path d="M382 1889 c-157 -78 -248 -360 -168 -523 27 -56 74 -96 112 -96 39 0
43 -11 28 -80 -7 -36 -16 -101 -20 -145 -3 -44 -18 -114 -32 -155 -20 -62 -25
-99 -28 -210 -5 -189 19 -272 96 -325 45 -31 73 -41 138 -50 46 -6 61 -14 100
-52 229 -223 556 -227 787 -12 51 48 68 57 110 63 70 10 146 49 173 90 40 59
54 122 54 246 0 144 -11 219 -42 280 -10 21 -20 71 -23 125 -4 50 -13 118 -20
153 -8 34 -11 62 -8 63 74 8 101 24 138 79 82 119 43 354 -80 487 -83 90 -160
105 -265 52 -35 -17 -78 -49 -99 -73 l-37 -43 -61 28 c-86 39 -139 51 -230 54
-86 2 -192 -24 -258 -62 l-33 -20 -48 48 c-93 93 -195 122 -284 78z m1218 -54
c116 -60 195 -275 154 -417 -15 -50 -62 -98 -95 -98 -133 0 -266 239 -229 414
23 110 83 146 170 101z m-1079 -6 c32 -32 50 -86 51 -153 0 -84 -8 -121 -42
-191 -70 -144 -183 -206 -249 -136 -37 40 -50 90 -46 175 6 130 70 253 160
308 41 25 99 24 126 -3z m619 -69 c104 -31 230 -121 230 -164 0 -39 42 -150
77 -203 32 -49 74 -91 108 -110 15 -9 42 -101 51 -173 3 -25 7 -55 9 -67 4
-27 6 -27 -37 -8 -58 24 -122 29 -138 11 -17 -22 3 -46 39 -46 87 0 149 -52
178 -148 23 -78 24 -331 1 -382 -35 -77 -101 -110 -229 -115 -262 -9 -398 84
-399 272 0 90 26 165 80 226 22 25 40 52 40 61 0 9 -18 28 -41 43 -70 46 -179
42 -243 -8 -34 -27 -33 -49 4 -84 89 -86 121 -256 67 -364 -51 -101 -156 -146
-342 -146 -126 0 -169 10 -213 49 -49 43 -65 105 -64 248 1 231 50 323 182
343 25 4 48 9 52 11 12 8 9 42 -4 46 -21 7 -122 -12 -145 -28 -22 -14 -23 -13
-23 13 0 25 17 141 25 168 1 6 6 25 10 42 5 21 19 40 39 53 66 40 135 153 160
260 17 74 21 79 105 134 141 93 268 113 421 66z m-489 -43 c-13 -13 -17 -9
-25 28 l-6 30 20 -24 c14 -17 18 -27 11 -34z m722 21 c-6 -29 -17 -36 -28 -17
-4 5 1 19 11 30 21 24 24 22 17 -13z m-302 -825 c6 -6 -1 -22 -20 -47 -17 -21
-33 -46 -36 -57 -9 -27 -18 -24 -39 16 -10 19 -28 44 -39 56 -20 21 -20 22 -1
36 21 16 117 14 135 -4z m-61 -446 c0 -24 82 -97 139 -123 30 -15 84 -31 121
-36 36 -6 71 -12 79 -15 23 -6 -54 -68 -136 -109 -131 -66 -278 -70 -410 -10
-70 32 -168 105 -156 116 4 4 33 10 63 13 108 12 220 70 262 138 24 39 38 49
38 26z"/>
<path d="M1180 1480 c-144 -40 -209 -210 -125 -330 113 -161 366 -98 388 98
14 119 -76 228 -196 236 -23 2 -53 0 -67 -4z m79 -104 c44 -23 65 -91 41 -137
-13 -23 -61 -49 -90 -49 -31 0 -76 29 -89 57 -41 89 50 174 138 129z"/>
<path d="M1169 1342 c-31 -26 -31 -78 0 -104 31 -25 57 -23 86 7 29 29 32 55
8 84 -25 30 -66 35 -94 13z"/>
<path d="M743 1364 c-57 -28 -57 -109 -1 -144 23 -14 37 -16 62 -9 69 19 87
89 37 140 -33 33 -52 35 -98 13z"/>
<path d="M684 869 c-9 -16 12 -33 31 -25 14 5 15 9 5 21 -15 18 -26 19 -36 4z"/>
<path d="M1277 866 c-7 -17 22 -31 36 -17 5 5 6 14 3 20 -10 16 -33 14 -39 -3z"/>
<path d="M763 789 c-14 -14 -6 -39 12 -39 18 0 26 27 11 39 -9 7 -16 7 -23 0z"/>
<path d="M1202 773 c2 -10 10 -18 18 -18 8 0 16 8 18 18 2 12 -3 17 -18 17
-15 0 -20 -5 -18 -17z"/>
<path d="M613 764 c-7 -19 11 -39 26 -30 16 10 13 33 -4 40 -9 3 -18 -1 -22
-10z"/>
<path d="M1351 766 c-8 -10 -7 -17 5 -27 13 -11 17 -10 25 2 12 20 11 26 -5
32 -8 3 -19 0 -25 -7z"/>
<path d="M703 664 c-9 -23 11 -38 26 -20 13 16 7 36 -10 36 -5 0 -12 -7 -16
-16z"/>
<path d="M1263 664 c-9 -23 11 -38 26 -20 13 16 7 36 -10 36 -5 0 -12 -7 -16
-16z"/>
</g>
</svg>
